# xmcd
#
# Track frame offsets: 
#        150
#        15389
#        30978
#        46727
#        57854
#        70367
#        91483
#        105105
#        120851
#        133343
#
# Disc length: 2026 seconds
#
# Revision: 0
# Processed by: cddbd v1.5.2PL0 Copyright (c) Steve Scherf et al.
# Submitted via: ExactAudioCopy v0.99pb5
#
DISCID=7107e80a
DTITLE=Erin McCallum - Feel This
DYEAR=2008
DGENRE=Blues
TTITLE0=2 Steps Forward
TTITLE1=Here I Am
TTITLE2=Feel This
TTITLE3=It's Not Your Business
TTITLE4=Can't Go Wrong
TTITLE5=Through My Soul
TTITLE6=Take Me Slow
TTITLE7=Justified
TTITLE8=Rise Up
TTITLE9=Home
EXTD=
EXTT0=
EXTT1=
EXTT2=
EXTT3=
EXTT4=
EXTT5=
EXTT6=
EXTT7=
EXTT8=
EXTT9=
PLAYORDER=
